<mxfile host="Electron" modified="2023-12-18T22:58:07.909Z" agent="Mozilla/5.0 (Windows NT 10.0; Win64; x64) AppleWebKit/537.36 (KHTML, like Gecko) draw.io/21.6.8 Chrome/114.0.5735.289 Electron/25.5.0 Safari/537.36" etag="1PgLPdeJPgBEJ7NMRqUK" version="21.6.8" type="device">
  <diagram name="Página-1" id="Gsm0FP87lTjRuEX7GHm9">
    <mxGraphModel dx="2245" dy="820" grid="1" gridSize="10" guides="1" tooltips="1" connect="1" arrows="1" fold="1" page="1" pageScale="1" pageWidth="827" pageHeight="1169" math="0" shadow="0">
      <root>
        <mxCell id="0" />
        <mxCell id="1" parent="0" />
        <mxCell id="u44JOOURHIP5Td-Vb4QU-1" value="TERMINALES" style="rounded=0;whiteSpace=wrap;html=1;strokeWidth=3;" parent="1" vertex="1">
          <mxGeometry x="1040" y="490" width="120" height="60" as="geometry" />
        </mxCell>
        <mxCell id="u44JOOURHIP5Td-Vb4QU-2" value="&lt;u&gt;codigo&lt;/u&gt;" style="rounded=1;whiteSpace=wrap;html=1;arcSize=50;" parent="1" vertex="1">
          <mxGeometry x="990" y="420" width="100" height="30" as="geometry" />
        </mxCell>
        <mxCell id="u44JOOURHIP5Td-Vb4QU-3" value="ciudad" style="rounded=1;whiteSpace=wrap;html=1;arcSize=50;" parent="1" vertex="1">
          <mxGeometry x="1120" y="420" width="100" height="30" as="geometry" />
        </mxCell>
        <mxCell id="u44JOOURHIP5Td-Vb4QU-4" value="" style="endArrow=none;html=1;rounded=0;entryX=0.5;entryY=1;entryDx=0;entryDy=0;exitX=0.75;exitY=0;exitDx=0;exitDy=0;endFill=0;strokeWidth=2;" parent="1" source="u44JOOURHIP5Td-Vb4QU-1" target="u44JOOURHIP5Td-Vb4QU-3" edge="1">
          <mxGeometry width="50" height="50" relative="1" as="geometry">
            <mxPoint x="1120" y="520" as="sourcePoint" />
            <mxPoint x="1170" y="470" as="targetPoint" />
          </mxGeometry>
        </mxCell>
        <mxCell id="u44JOOURHIP5Td-Vb4QU-5" value="" style="endArrow=none;html=1;rounded=0;entryX=0.5;entryY=1;entryDx=0;entryDy=0;exitX=0.291;exitY=0.014;exitDx=0;exitDy=0;exitPerimeter=0;endFill=0;strokeWidth=2;" parent="1" source="u44JOOURHIP5Td-Vb4QU-1" target="u44JOOURHIP5Td-Vb4QU-2" edge="1">
          <mxGeometry width="50" height="50" relative="1" as="geometry">
            <mxPoint x="980" y="530" as="sourcePoint" />
            <mxPoint x="1030" y="480" as="targetPoint" />
          </mxGeometry>
        </mxCell>
        <mxCell id="u44JOOURHIP5Td-Vb4QU-6" value="NACIONALES" style="rounded=0;whiteSpace=wrap;html=1;strokeWidth=3;" parent="1" vertex="1">
          <mxGeometry x="950" y="660" width="120" height="60" as="geometry" />
        </mxCell>
        <mxCell id="u44JOOURHIP5Td-Vb4QU-7" value="INTERNACIONALES" style="rounded=0;whiteSpace=wrap;html=1;strokeWidth=3;" parent="1" vertex="1">
          <mxGeometry x="1140" y="660" width="120" height="60" as="geometry" />
        </mxCell>
        <mxCell id="u44JOOURHIP5Td-Vb4QU-8" value="pais" style="rounded=1;whiteSpace=wrap;html=1;arcSize=50;" parent="1" vertex="1">
          <mxGeometry x="870" y="590" width="100" height="30" as="geometry" />
        </mxCell>
        <mxCell id="u44JOOURHIP5Td-Vb4QU-9" value="" style="endArrow=none;html=1;rounded=0;entryX=0.5;entryY=1;entryDx=0;entryDy=0;exitX=0.25;exitY=0;exitDx=0;exitDy=0;strokeWidth=2;" parent="1" source="u44JOOURHIP5Td-Vb4QU-6" target="u44JOOURHIP5Td-Vb4QU-8" edge="1">
          <mxGeometry width="50" height="50" relative="1" as="geometry">
            <mxPoint x="960" y="810" as="sourcePoint" />
            <mxPoint x="1010" y="760" as="targetPoint" />
          </mxGeometry>
        </mxCell>
        <mxCell id="u44JOOURHIP5Td-Vb4QU-10" value="taxis" style="rounded=1;whiteSpace=wrap;html=1;arcSize=50;" parent="1" vertex="1">
          <mxGeometry x="1234" y="600" width="100" height="30" as="geometry" />
        </mxCell>
        <mxCell id="u44JOOURHIP5Td-Vb4QU-11" value="" style="endArrow=none;html=1;rounded=0;entryX=0.5;entryY=1;entryDx=0;entryDy=0;exitX=0.75;exitY=0;exitDx=0;exitDy=0;strokeWidth=2;" parent="1" source="u44JOOURHIP5Td-Vb4QU-7" target="u44JOOURHIP5Td-Vb4QU-10" edge="1">
          <mxGeometry width="50" height="50" relative="1" as="geometry">
            <mxPoint x="1150" y="780" as="sourcePoint" />
            <mxPoint x="1200" y="730" as="targetPoint" />
          </mxGeometry>
        </mxCell>
        <mxCell id="u44JOOURHIP5Td-Vb4QU-12" value="COMPANIAS" style="rounded=0;whiteSpace=wrap;html=1;strokeWidth=3;" parent="1" vertex="1">
          <mxGeometry x="30" y="490" width="120" height="60" as="geometry" />
        </mxCell>
        <mxCell id="u44JOOURHIP5Td-Vb4QU-13" value="&lt;u&gt;nombre&lt;/u&gt;" style="rounded=1;whiteSpace=wrap;html=1;arcSize=50;" parent="1" vertex="1">
          <mxGeometry x="-70" y="420" width="100" height="30" as="geometry" />
        </mxCell>
        <mxCell id="u44JOOURHIP5Td-Vb4QU-14" value="direccion" style="rounded=1;whiteSpace=wrap;html=1;arcSize=50;" parent="1" vertex="1">
          <mxGeometry x="40" y="420" width="100" height="30" as="geometry" />
        </mxCell>
        <mxCell id="u44JOOURHIP5Td-Vb4QU-15" value="telefono" style="rounded=1;whiteSpace=wrap;html=1;arcSize=50;" parent="1" vertex="1">
          <mxGeometry x="150" y="420" width="100" height="30" as="geometry" />
        </mxCell>
        <mxCell id="u44JOOURHIP5Td-Vb4QU-16" value="" style="endArrow=none;html=1;rounded=0;entryX=0.5;entryY=1;entryDx=0;entryDy=0;exitX=0.814;exitY=-0.003;exitDx=0;exitDy=0;exitPerimeter=0;strokeWidth=2;" parent="1" source="u44JOOURHIP5Td-Vb4QU-12" target="u44JOOURHIP5Td-Vb4QU-15" edge="1">
          <mxGeometry width="50" height="50" relative="1" as="geometry">
            <mxPoint x="170" y="580" as="sourcePoint" />
            <mxPoint x="220" y="530" as="targetPoint" />
          </mxGeometry>
        </mxCell>
        <mxCell id="u44JOOURHIP5Td-Vb4QU-17" value="" style="endArrow=none;html=1;rounded=0;entryX=0.5;entryY=1;entryDx=0;entryDy=0;strokeWidth=2;" parent="1" source="u44JOOURHIP5Td-Vb4QU-12" target="u44JOOURHIP5Td-Vb4QU-14" edge="1">
          <mxGeometry width="50" height="50" relative="1" as="geometry">
            <mxPoint x="60" y="660" as="sourcePoint" />
            <mxPoint x="110" y="610" as="targetPoint" />
          </mxGeometry>
        </mxCell>
        <mxCell id="u44JOOURHIP5Td-Vb4QU-18" value="" style="endArrow=none;html=1;rounded=0;entryX=0.5;entryY=1;entryDx=0;entryDy=0;exitX=0.25;exitY=0;exitDx=0;exitDy=0;strokeWidth=2;" parent="1" source="u44JOOURHIP5Td-Vb4QU-12" target="u44JOOURHIP5Td-Vb4QU-13" edge="1">
          <mxGeometry width="50" height="50" relative="1" as="geometry">
            <mxPoint x="-20" y="710" as="sourcePoint" />
            <mxPoint x="30" y="660" as="targetPoint" />
          </mxGeometry>
        </mxCell>
        <mxCell id="u44JOOURHIP5Td-Vb4QU-19" value="VIAJES" style="rounded=0;whiteSpace=wrap;html=1;strokeWidth=3;" parent="1" vertex="1">
          <mxGeometry x="520" y="490" width="120" height="60" as="geometry" />
        </mxCell>
        <mxCell id="u44JOOURHIP5Td-Vb4QU-20" value="&lt;u&gt;nroInterno&lt;/u&gt;" style="rounded=1;whiteSpace=wrap;html=1;arcSize=50;" parent="1" vertex="1">
          <mxGeometry x="400" y="450" width="100" height="30" as="geometry" />
        </mxCell>
        <mxCell id="u44JOOURHIP5Td-Vb4QU-21" value="&lt;div style=&quot;text-align: center;&quot;&gt;&lt;b style=&quot;background-color: initial;&quot;&gt;&lt;font style=&quot;font-size: 20px;&quot;&gt;&lt;u&gt;RNE:&lt;/u&gt;&lt;/font&gt;&lt;/b&gt;&lt;/div&gt;&lt;br&gt;&amp;nbsp; &lt;b&gt;1-&lt;/b&gt; El número interno es autogenerado&lt;br&gt;&amp;nbsp; &lt;b&gt;2-&lt;/b&gt; Terminal cuenta con 35 andenes&lt;br&gt;&lt;div style=&quot;&quot;&gt;&lt;span style=&quot;background-color: initial;&quot;&gt;&amp;nbsp; &lt;b&gt;3-&lt;/b&gt; Cantidad máxima de pasajeros son 50&lt;/span&gt;&lt;/div&gt;&lt;div style=&quot;&quot;&gt;&lt;span style=&quot;background-color: initial;&quot;&gt;&amp;nbsp; &lt;b&gt;4-&lt;/b&gt; Código está compuesto por 6 letras&lt;/span&gt;&lt;/div&gt;&lt;div style=&quot;&quot;&gt;&lt;span style=&quot;background-color: initial;&quot;&gt;&amp;nbsp; &lt;b&gt;5-&lt;/b&gt; El precio del boleto debe ser igual o mayor a cero&lt;/span&gt;&lt;/div&gt;&lt;div style=&quot;&quot;&gt;&lt;span style=&quot;background-color: initial;&quot;&gt;&amp;nbsp; &lt;b&gt;6-&lt;/b&gt; La fecha y hora de salida debe ser menor a la fecha&amp;nbsp; y hora de llegada&lt;/span&gt;&lt;/div&gt;&lt;div style=&quot;&quot;&gt;&lt;span style=&quot;background-color: initial;&quot;&gt;&lt;br&gt;&lt;/span&gt;&lt;/div&gt;" style="rounded=0;whiteSpace=wrap;html=1;align=left;strokeWidth=2;" parent="1" vertex="1">
          <mxGeometry x="373.5" y="600" width="413" height="160" as="geometry" />
        </mxCell>
        <mxCell id="u44JOOURHIP5Td-Vb4QU-22" value="fecHorSalida" style="rounded=1;whiteSpace=wrap;html=1;arcSize=50;" parent="1" vertex="1">
          <mxGeometry x="430" y="410" width="100" height="30" as="geometry" />
        </mxCell>
        <mxCell id="u44JOOURHIP5Td-Vb4QU-23" value="fecHorLlegada" style="rounded=1;whiteSpace=wrap;html=1;arcSize=50;" parent="1" vertex="1">
          <mxGeometry x="480" y="370" width="100" height="30" as="geometry" />
        </mxCell>
        <mxCell id="u44JOOURHIP5Td-Vb4QU-24" value="cantPasajeros" style="rounded=1;whiteSpace=wrap;html=1;arcSize=50;" parent="1" vertex="1">
          <mxGeometry x="590" y="370" width="100" height="30" as="geometry" />
        </mxCell>
        <mxCell id="u44JOOURHIP5Td-Vb4QU-25" value="precioBoleto" style="rounded=1;whiteSpace=wrap;html=1;arcSize=50;" parent="1" vertex="1">
          <mxGeometry x="640" y="410" width="100" height="30" as="geometry" />
        </mxCell>
        <mxCell id="u44JOOURHIP5Td-Vb4QU-26" value="anden" style="rounded=1;whiteSpace=wrap;html=1;arcSize=50;" parent="1" vertex="1">
          <mxGeometry x="670" y="450" width="100" height="30" as="geometry" />
        </mxCell>
        <mxCell id="u44JOOURHIP5Td-Vb4QU-27" value="" style="endArrow=none;html=1;rounded=0;entryX=0.5;entryY=1;entryDx=0;entryDy=0;exitX=0;exitY=0;exitDx=0;exitDy=0;strokeWidth=2;" parent="1" source="u44JOOURHIP5Td-Vb4QU-19" target="u44JOOURHIP5Td-Vb4QU-20" edge="1">
          <mxGeometry width="50" height="50" relative="1" as="geometry">
            <mxPoint x="500" y="500" as="sourcePoint" />
            <mxPoint x="480" y="500" as="targetPoint" />
          </mxGeometry>
        </mxCell>
        <mxCell id="u44JOOURHIP5Td-Vb4QU-28" value="" style="endArrow=none;html=1;rounded=0;entryX=0.5;entryY=1;entryDx=0;entryDy=0;exitX=0.25;exitY=0;exitDx=0;exitDy=0;strokeWidth=2;" parent="1" source="u44JOOURHIP5Td-Vb4QU-19" target="u44JOOURHIP5Td-Vb4QU-22" edge="1">
          <mxGeometry width="50" height="50" relative="1" as="geometry">
            <mxPoint x="550" y="470" as="sourcePoint" />
            <mxPoint x="510" y="520" as="targetPoint" />
          </mxGeometry>
        </mxCell>
        <mxCell id="u44JOOURHIP5Td-Vb4QU-29" value="" style="endArrow=none;html=1;rounded=0;entryX=0.5;entryY=1;entryDx=0;entryDy=0;exitX=0.5;exitY=0;exitDx=0;exitDy=0;strokeWidth=2;" parent="1" source="u44JOOURHIP5Td-Vb4QU-19" target="u44JOOURHIP5Td-Vb4QU-23" edge="1">
          <mxGeometry width="50" height="50" relative="1" as="geometry">
            <mxPoint x="210" y="600" as="sourcePoint" />
            <mxPoint x="260" y="550" as="targetPoint" />
          </mxGeometry>
        </mxCell>
        <mxCell id="u44JOOURHIP5Td-Vb4QU-30" value="" style="endArrow=none;html=1;rounded=0;entryX=0.5;entryY=1;entryDx=0;entryDy=0;exitX=0.5;exitY=0;exitDx=0;exitDy=0;strokeWidth=2;" parent="1" source="u44JOOURHIP5Td-Vb4QU-19" target="u44JOOURHIP5Td-Vb4QU-24" edge="1">
          <mxGeometry width="50" height="50" relative="1" as="geometry">
            <mxPoint x="260" y="580" as="sourcePoint" />
            <mxPoint x="310" y="530" as="targetPoint" />
          </mxGeometry>
        </mxCell>
        <mxCell id="u44JOOURHIP5Td-Vb4QU-31" value="" style="endArrow=none;html=1;rounded=0;exitX=1;exitY=0;exitDx=0;exitDy=0;entryX=0.5;entryY=1;entryDx=0;entryDy=0;strokeWidth=2;" parent="1" source="u44JOOURHIP5Td-Vb4QU-19" target="u44JOOURHIP5Td-Vb4QU-26" edge="1">
          <mxGeometry width="50" height="50" relative="1" as="geometry">
            <mxPoint x="320" y="620" as="sourcePoint" />
            <mxPoint x="700" y="480" as="targetPoint" />
          </mxGeometry>
        </mxCell>
        <mxCell id="u44JOOURHIP5Td-Vb4QU-32" value="" style="endArrow=none;html=1;rounded=0;entryX=0.5;entryY=1;entryDx=0;entryDy=0;exitX=0.791;exitY=-0.014;exitDx=0;exitDy=0;exitPerimeter=0;strokeWidth=2;" parent="1" source="u44JOOURHIP5Td-Vb4QU-19" target="u44JOOURHIP5Td-Vb4QU-25" edge="1">
          <mxGeometry width="50" height="50" relative="1" as="geometry">
            <mxPoint x="370" y="600" as="sourcePoint" />
            <mxPoint x="420" y="550" as="targetPoint" />
          </mxGeometry>
        </mxCell>
        <mxCell id="u44JOOURHIP5Td-Vb4QU-33" value="" style="endArrow=none;html=1;rounded=1;exitX=0.5;exitY=0;exitDx=0;exitDy=0;entryX=0.5;entryY=0;entryDx=0;entryDy=0;strokeWidth=2;" parent="1" source="u44JOOURHIP5Td-Vb4QU-6" target="u44JOOURHIP5Td-Vb4QU-7" edge="1">
          <mxGeometry width="50" height="50" relative="1" as="geometry">
            <mxPoint x="1000" y="660" as="sourcePoint" />
            <mxPoint x="1180" y="590" as="targetPoint" />
            <Array as="points">
              <mxPoint x="1010" y="620" />
              <mxPoint x="1200" y="620" />
            </Array>
          </mxGeometry>
        </mxCell>
        <mxCell id="u44JOOURHIP5Td-Vb4QU-34" value="" style="endArrow=block;html=1;rounded=0;endFill=0;endSize=20;strokeWidth=2;targetPerimeterSpacing=0;sourcePerimeterSpacing=0;entryX=0.5;entryY=1;entryDx=0;entryDy=0;" parent="1" target="u44JOOURHIP5Td-Vb4QU-1" edge="1">
          <mxGeometry width="50" height="50" relative="1" as="geometry">
            <mxPoint x="1099.6399999999999" y="620" as="sourcePoint" />
            <mxPoint x="1100" y="560" as="targetPoint" />
          </mxGeometry>
        </mxCell>
        <mxCell id="u44JOOURHIP5Td-Vb4QU-38" value="REALIZA" style="rhombus;whiteSpace=wrap;html=1;strokeWidth=3;" parent="1" vertex="1">
          <mxGeometry x="250" y="490" width="150" height="60" as="geometry" />
        </mxCell>
        <mxCell id="u44JOOURHIP5Td-Vb4QU-39" value="" style="endArrow=none;html=1;rounded=0;entryX=0;entryY=0.5;entryDx=0;entryDy=0;exitX=1;exitY=0.5;exitDx=0;exitDy=0;strokeWidth=2;startArrow=oval;startFill=1;startSize=10;" parent="1" source="u44JOOURHIP5Td-Vb4QU-38" target="u44JOOURHIP5Td-Vb4QU-19" edge="1">
          <mxGeometry width="50" height="50" relative="1" as="geometry">
            <mxPoint x="320" y="660" as="sourcePoint" />
            <mxPoint x="370" y="610" as="targetPoint" />
          </mxGeometry>
        </mxCell>
        <mxCell id="u44JOOURHIP5Td-Vb4QU-40" value="" style="endArrow=none;html=1;rounded=0;entryX=0;entryY=0.5;entryDx=0;entryDy=0;exitX=1;exitY=0.5;exitDx=0;exitDy=0;strokeWidth=2;" parent="1" source="u44JOOURHIP5Td-Vb4QU-12" target="u44JOOURHIP5Td-Vb4QU-38" edge="1">
          <mxGeometry width="50" height="50" relative="1" as="geometry">
            <mxPoint x="250" y="660" as="sourcePoint" />
            <mxPoint x="300" y="610" as="targetPoint" />
          </mxGeometry>
        </mxCell>
        <mxCell id="u44JOOURHIP5Td-Vb4QU-41" value="" style="endArrow=none;html=1;rounded=0;exitX=0;exitY=0.5;exitDx=0;exitDy=0;entryX=1;entryY=0.5;entryDx=0;entryDy=0;strokeWidth=2;startArrow=oval;startFill=1;startSize=10;" parent="1" source="u44JOOURHIP5Td-Vb4QU-42" target="u44JOOURHIP5Td-Vb4QU-19" edge="1">
          <mxGeometry width="50" height="50" relative="1" as="geometry">
            <mxPoint x="780" y="520" as="sourcePoint" />
            <mxPoint x="720" y="570" as="targetPoint" />
          </mxGeometry>
        </mxCell>
        <mxCell id="u44JOOURHIP5Td-Vb4QU-42" value="LLEGA" style="rhombus;whiteSpace=wrap;html=1;strokeWidth=3;" parent="1" vertex="1">
          <mxGeometry x="780" y="490" width="150" height="60" as="geometry" />
        </mxCell>
        <mxCell id="u44JOOURHIP5Td-Vb4QU-43" value="" style="endArrow=none;html=1;rounded=0;entryX=0;entryY=0.5;entryDx=0;entryDy=0;exitX=1;exitY=0.5;exitDx=0;exitDy=0;strokeWidth=2;" parent="1" source="u44JOOURHIP5Td-Vb4QU-42" target="u44JOOURHIP5Td-Vb4QU-1" edge="1">
          <mxGeometry width="50" height="50" relative="1" as="geometry">
            <mxPoint x="930" y="510" as="sourcePoint" />
            <mxPoint x="760" y="600" as="targetPoint" />
          </mxGeometry>
        </mxCell>
        <mxCell id="tZaQK8efo6Y2VldgmCCS-2" value="1" style="text;html=1;strokeColor=none;fillColor=none;align=center;verticalAlign=middle;whiteSpace=wrap;rounded=0;" parent="1" vertex="1">
          <mxGeometry x="150" y="520" width="30" height="25" as="geometry" />
        </mxCell>
        <mxCell id="tZaQK8efo6Y2VldgmCCS-3" value="1" style="text;html=1;strokeColor=none;fillColor=none;align=center;verticalAlign=middle;whiteSpace=wrap;rounded=0;" parent="1" vertex="1">
          <mxGeometry x="1010" y="520" width="30" height="25" as="geometry" />
        </mxCell>
        <mxCell id="tZaQK8efo6Y2VldgmCCS-6" value="N" style="text;html=1;strokeColor=none;fillColor=none;align=center;verticalAlign=middle;whiteSpace=wrap;rounded=0;" parent="1" vertex="1">
          <mxGeometry x="490" y="520" width="30" height="25" as="geometry" />
        </mxCell>
        <mxCell id="tZaQK8efo6Y2VldgmCCS-7" value="N" style="text;html=1;strokeColor=none;fillColor=none;align=center;verticalAlign=middle;whiteSpace=wrap;rounded=0;" parent="1" vertex="1">
          <mxGeometry x="640" y="520" width="30" height="25" as="geometry" />
        </mxCell>
      </root>
    </mxGraphModel>
  </diagram>
</mxfile>
